<svg xmlns="http://www.w3.org/2000/svg" xmlns:xlink="http://www.w3.org/1999/xlink" width="400" zoomAndPan="magnify" viewBox="0 0 300 74.999997" height="100" preserveAspectRatio="xMidYMid meet" version="1.0"><defs><g/><clipPath id="9e41d8b87e"><path d="M 11 10 L 68 10 L 68 68 L 11 68 Z M 11 10 " clip-rule="nonzero"/></clipPath><clipPath id="c0e214a929"><path d="M 70.703125 38.828125 L 39.582031 69.949219 L 8.460938 38.828125 L 39.582031 7.707031 Z M 70.703125 38.828125 " clip-rule="nonzero"/></clipPath><clipPath id="ce61d9b506"><path d="M 65.929688 43.601562 L 44.355469 65.175781 C 41.71875 67.8125 37.445312 67.8125 34.808594 65.175781 L 13.234375 43.601562 C 10.597656 40.964844 10.597656 36.691406 13.234375 34.054688 L 34.808594 12.480469 C 37.445312 9.84375 41.71875 9.84375 44.355469 12.480469 L 65.929688 34.054688 C 68.566406 36.691406 68.566406 40.964844 65.929688 43.601562 Z M 65.929688 43.601562 " clip-rule="nonzero"/></clipPath><clipPath id="566f226bda"><path d="M 70.703125 38.828125 L 39.582031 69.949219 L 8.460938 38.828125 L 39.582031 7.707031 Z M 70.703125 38.828125 " clip-rule="nonzero"/></clipPath><clipPath id="d23260d07c"><path d="M 70.703125 38.828125 L 39.582031 69.949219 L 8.460938 38.828125 L 39.582031 7.707031 Z M 70.703125 38.828125 " clip-rule="nonzero"/></clipPath><linearGradient x1="-110.421928" gradientTransform="matrix(-0.121568, 0.121568, -0.121568, -0.121568, 70.702739, 38.828996)" y1="128" x2="366.421918" gradientUnits="userSpaceOnUse" y2="128" id="4ebfbaaa1c"><stop stop-opacity="1" stop-color="rgb(0%, 28.999329%, 67.799377%)" offset="0"/><stop stop-opacity="1" stop-color="rgb(0%, 28.999329%, 67.799377%)" offset="0.125"/><stop stop-opacity="1" stop-color="rgb(0%, 28.999329%, 67.799377%)" offset="0.1875"/><stop stop-opacity="1" stop-color="rgb(0%, 28.999329%, 67.799377%)" offset="0.21875"/><stop stop-opacity="1" stop-color="rgb(0%, 28.999329%, 67.799377%)" offset="0.226562"/><stop stop-opacity="1" stop-color="rgb(0.20752%, 29.034424%, 67.857361%)" offset="0.230469"/><stop stop-opacity="1" stop-color="rgb(0.415039%, 29.069519%, 67.91687%)" offset="0.234375"/><stop stop-opacity="1" stop-color="rgb(0.993347%, 29.167175%, 68.078613%)" offset="0.238281"/><stop stop-opacity="1" stop-color="rgb(1.573181%, 29.264832%, 68.241882%)" offset="0.242188"/><stop stop-opacity="1" stop-color="rgb(2.151489%, 29.360962%, 68.405151%)" offset="0.246094"/><stop stop-opacity="1" stop-color="rgb(2.731323%, 29.458618%, 68.56842%)" offset="0.25"/><stop stop-opacity="1" stop-color="rgb(3.311157%, 29.556274%, 68.731689%)" offset="0.253906"/><stop stop-opacity="1" stop-color="rgb(3.890991%, 29.653931%, 68.894958%)" offset="0.257812"/><stop stop-opacity="1" stop-color="rgb(4.469299%, 29.751587%, 69.056702%)" offset="0.261719"/><stop stop-opacity="1" stop-color="rgb(5.049133%, 29.849243%, 69.219971%)" offset="0.265625"/><stop stop-opacity="1" stop-color="rgb(5.627441%, 29.946899%, 69.38324%)" offset="0.269531"/><stop stop-opacity="1" stop-color="rgb(6.207275%, 30.044556%, 69.546509%)" offset="0.273438"/><stop stop-opacity="1" stop-color="rgb(6.785583%, 30.142212%, 69.708252%)" offset="0.277344"/><stop stop-opacity="1" stop-color="rgb(7.365417%, 30.239868%, 69.871521%)" offset="0.28125"/><stop stop-opacity="1" stop-color="rgb(7.943726%, 30.335999%, 70.03479%)" offset="0.285156"/><stop stop-opacity="1" stop-color="rgb(8.52356%, 30.433655%, 70.198059%)" offset="0.289062"/><stop stop-opacity="1" stop-color="rgb(9.101868%, 30.531311%, 70.361328%)" offset="0.292969"/><stop stop-opacity="1" stop-color="rgb(9.681702%, 30.628967%, 70.524597%)" offset="0.296875"/><stop stop-opacity="1" stop-color="rgb(10.26001%, 30.726624%, 70.68634%)" offset="0.300781"/><stop stop-opacity="1" stop-color="rgb(10.839844%, 30.82428%, 70.849609%)" offset="0.304688"/><stop stop-opacity="1" stop-color="rgb(11.419678%, 30.921936%, 71.012878%)" offset="0.308594"/><stop stop-opacity="1" stop-color="rgb(11.999512%, 31.019592%, 71.176147%)" offset="0.3125"/><stop stop-opacity="1" stop-color="rgb(12.57782%, 31.117249%, 71.339417%)" offset="0.316406"/><stop stop-opacity="1" stop-color="rgb(13.157654%, 31.214905%, 71.502686%)" offset="0.320312"/><stop stop-opacity="1" stop-color="rgb(13.735962%, 31.311035%, 71.664429%)" offset="0.324219"/><stop stop-opacity="1" stop-color="rgb(14.315796%, 31.408691%, 71.827698%)" offset="0.328125"/><stop stop-opacity="1" stop-color="rgb(14.894104%, 31.506348%, 71.990967%)" offset="0.332031"/><stop stop-opacity="1" stop-color="rgb(15.473938%, 31.604004%, 72.154236%)" offset="0.335938"/><stop stop-opacity="1" stop-color="rgb(16.052246%, 31.70166%, 72.315979%)" offset="0.339844"/><stop stop-opacity="1" stop-color="rgb(16.63208%, 31.799316%, 72.479248%)" offset="0.34375"/><stop stop-opacity="1" stop-color="rgb(17.210388%, 31.896973%, 72.642517%)" offset="0.347656"/><stop stop-opacity="1" stop-color="rgb(17.790222%, 31.994629%, 72.805786%)" offset="0.351562"/><stop stop-opacity="1" stop-color="rgb(18.36853%, 32.092285%, 72.969055%)" offset="0.355469"/><stop stop-opacity="1" stop-color="rgb(18.948364%, 32.189941%, 73.132324%)" offset="0.359375"/><stop stop-opacity="1" stop-color="rgb(19.528198%, 32.286072%, 73.294067%)" offset="0.363281"/><stop stop-opacity="1" stop-color="rgb(20.108032%, 32.383728%, 73.457336%)" offset="0.367187"/><stop stop-opacity="1" stop-color="rgb(20.68634%, 32.481384%, 73.620605%)" offset="0.371094"/><stop stop-opacity="1" stop-color="rgb(21.266174%, 32.579041%, 73.783875%)" offset="0.375"/><stop stop-opacity="1" stop-color="rgb(21.844482%, 32.676697%, 73.947144%)" offset="0.378906"/><stop stop-opacity="1" stop-color="rgb(22.424316%, 32.774353%, 74.110413%)" offset="0.382812"/><stop stop-opacity="1" stop-color="rgb(23.002625%, 32.872009%, 74.272156%)" offset="0.386719"/><stop stop-opacity="1" stop-color="rgb(23.582458%, 32.969666%, 74.435425%)" offset="0.390625"/><stop stop-opacity="1" stop-color="rgb(24.160767%, 33.067322%, 74.598694%)" offset="0.394531"/><stop stop-opacity="1" stop-color="rgb(24.740601%, 33.164978%, 74.761963%)" offset="0.398437"/><stop stop-opacity="1" stop-color="rgb(25.318909%, 33.261108%, 74.923706%)" offset="0.402344"/><stop stop-opacity="1" stop-color="rgb(25.898743%, 33.358765%, 75.086975%)" offset="0.40625"/><stop stop-opacity="1" stop-color="rgb(26.477051%, 33.456421%, 75.250244%)" offset="0.410156"/><stop stop-opacity="1" stop-color="rgb(27.056885%, 33.554077%, 75.413513%)" offset="0.414062"/><stop stop-opacity="1" stop-color="rgb(27.635193%, 33.651733%, 75.576782%)" offset="0.417969"/><stop stop-opacity="1" stop-color="rgb(28.215027%, 33.74939%, 75.740051%)" offset="0.421875"/><stop stop-opacity="1" stop-color="rgb(28.794861%, 33.847046%, 75.901794%)" offset="0.425781"/><stop stop-opacity="1" stop-color="rgb(29.374695%, 33.944702%, 76.065063%)" offset="0.429688"/><stop stop-opacity="1" stop-color="rgb(29.953003%, 34.040833%, 76.228333%)" offset="0.433594"/><stop stop-opacity="1" stop-color="rgb(30.532837%, 34.138489%, 76.391602%)" offset="0.4375"/><stop stop-opacity="1" stop-color="rgb(31.111145%, 34.236145%, 76.554871%)" offset="0.441406"/><stop stop-opacity="1" stop-color="rgb(31.690979%, 34.333801%, 76.71814%)" offset="0.445312"/><stop stop-opacity="1" stop-color="rgb(32.269287%, 34.431458%, 76.879883%)" offset="0.449219"/><stop stop-opacity="1" stop-color="rgb(32.849121%, 34.529114%, 77.043152%)" offset="0.453125"/><stop stop-opacity="1" stop-color="rgb(33.427429%, 34.62677%, 77.206421%)" offset="0.457031"/><stop stop-opacity="1" stop-color="rgb(34.007263%, 34.724426%, 77.36969%)" offset="0.460938"/><stop stop-opacity="1" stop-color="rgb(34.585571%, 34.822083%, 77.531433%)" offset="0.464844"/><stop stop-opacity="1" stop-color="rgb(35.165405%, 34.919739%, 77.694702%)" offset="0.46875"/><stop stop-opacity="1" stop-color="rgb(35.743713%, 35.015869%, 77.857971%)" offset="0.472656"/><stop stop-opacity="1" stop-color="rgb(36.323547%, 35.113525%, 78.02124%)" offset="0.476562"/><stop stop-opacity="1" stop-color="rgb(36.903381%, 35.211182%, 78.184509%)" offset="0.480469"/><stop stop-opacity="1" stop-color="rgb(37.483215%, 35.308838%, 78.347778%)" offset="0.484375"/><stop stop-opacity="1" stop-color="rgb(38.061523%, 35.406494%, 78.509521%)" offset="0.488281"/><stop stop-opacity="1" stop-color="rgb(38.641357%, 35.50415%, 78.672791%)" offset="0.492187"/><stop stop-opacity="1" stop-color="rgb(39.219666%, 35.601807%, 78.83606%)" offset="0.496094"/><stop stop-opacity="1" stop-color="rgb(39.7995%, 35.699463%, 78.999329%)" offset="0.5"/><stop stop-opacity="1" stop-color="rgb(40.377808%, 35.797119%, 79.162598%)" offset="0.503906"/><stop stop-opacity="1" stop-color="rgb(40.957642%, 35.894775%, 79.325867%)" offset="0.507812"/><stop stop-opacity="1" stop-color="rgb(41.53595%, 35.990906%, 79.48761%)" offset="0.511719"/><stop stop-opacity="1" stop-color="rgb(42.115784%, 36.088562%, 79.650879%)" offset="0.515625"/><stop stop-opacity="1" stop-color="rgb(42.694092%, 36.186218%, 79.814148%)" offset="0.519531"/><stop stop-opacity="1" stop-color="rgb(43.273926%, 36.283875%, 79.977417%)" offset="0.523437"/><stop stop-opacity="1" stop-color="rgb(43.852234%, 36.381531%, 80.13916%)" offset="0.527344"/><stop stop-opacity="1" stop-color="rgb(44.432068%, 36.479187%, 80.302429%)" offset="0.53125"/><stop stop-opacity="1" stop-color="rgb(45.011902%, 36.576843%, 80.465698%)" offset="0.535156"/><stop stop-opacity="1" stop-color="rgb(45.591736%, 36.6745%, 80.628967%)" offset="0.539062"/><stop stop-opacity="1" stop-color="rgb(46.170044%, 36.772156%, 80.792236%)" offset="0.542969"/><stop stop-opacity="1" stop-color="rgb(46.749878%, 36.869812%, 80.955505%)" offset="0.546875"/><stop stop-opacity="1" stop-color="rgb(47.328186%, 36.965942%, 81.117249%)" offset="0.550781"/><stop stop-opacity="1" stop-color="rgb(47.90802%, 37.063599%, 81.280518%)" offset="0.554688"/><stop stop-opacity="1" stop-color="rgb(48.486328%, 37.161255%, 81.443787%)" offset="0.558594"/><stop stop-opacity="1" stop-color="rgb(49.066162%, 37.258911%, 81.607056%)" offset="0.5625"/><stop stop-opacity="1" stop-color="rgb(49.64447%, 37.356567%, 81.770325%)" offset="0.566406"/><stop stop-opacity="1" stop-color="rgb(50.224304%, 37.454224%, 81.933594%)" offset="0.570312"/><stop stop-opacity="1" stop-color="rgb(50.802612%, 37.55188%, 82.095337%)" offset="0.574219"/><stop stop-opacity="1" stop-color="rgb(51.382446%, 37.649536%, 82.258606%)" offset="0.578125"/><stop stop-opacity="1" stop-color="rgb(51.960754%, 37.747192%, 82.421875%)" offset="0.582031"/><stop stop-opacity="1" stop-color="rgb(52.540588%, 37.844849%, 82.585144%)" offset="0.585938"/><stop stop-opacity="1" stop-color="rgb(53.118896%, 37.940979%, 82.746887%)" offset="0.589844"/><stop stop-opacity="1" stop-color="rgb(53.69873%, 38.038635%, 82.910156%)" offset="0.59375"/><stop stop-opacity="1" stop-color="rgb(54.278564%, 38.136292%, 83.073425%)" offset="0.597656"/><stop stop-opacity="1" stop-color="rgb(54.858398%, 38.233948%, 83.236694%)" offset="0.601562"/><stop stop-opacity="1" stop-color="rgb(55.436707%, 38.331604%, 83.399963%)" offset="0.605469"/><stop stop-opacity="1" stop-color="rgb(56.016541%, 38.42926%, 83.563232%)" offset="0.609375"/><stop stop-opacity="1" stop-color="rgb(56.594849%, 38.526917%, 83.724976%)" offset="0.613281"/><stop stop-opacity="1" stop-color="rgb(57.174683%, 38.624573%, 83.888245%)" offset="0.617187"/><stop stop-opacity="1" stop-color="rgb(57.752991%, 38.722229%, 84.051514%)" offset="0.621094"/><stop stop-opacity="1" stop-color="rgb(58.332825%, 38.819885%, 84.214783%)" offset="0.625"/><stop stop-opacity="1" stop-color="rgb(58.911133%, 38.916016%, 84.378052%)" offset="0.628906"/><stop stop-opacity="1" stop-color="rgb(59.490967%, 39.013672%, 84.541321%)" offset="0.632812"/><stop stop-opacity="1" stop-color="rgb(60.069275%, 39.111328%, 84.703064%)" offset="0.636719"/><stop stop-opacity="1" stop-color="rgb(60.649109%, 39.208984%, 84.866333%)" offset="0.640625"/><stop stop-opacity="1" stop-color="rgb(61.227417%, 39.306641%, 85.029602%)" offset="0.644531"/><stop stop-opacity="1" stop-color="rgb(61.807251%, 39.404297%, 85.192871%)" offset="0.648437"/><stop stop-opacity="1" stop-color="rgb(62.387085%, 39.501953%, 85.354614%)" offset="0.652344"/><stop stop-opacity="1" stop-color="rgb(62.966919%, 39.599609%, 85.517883%)" offset="0.65625"/><stop stop-opacity="1" stop-color="rgb(63.545227%, 39.697266%, 85.681152%)" offset="0.660156"/><stop stop-opacity="1" stop-color="rgb(64.125061%, 39.794922%, 85.844421%)" offset="0.664062"/><stop stop-opacity="1" stop-color="rgb(64.703369%, 39.891052%, 86.00769%)" offset="0.667969"/><stop stop-opacity="1" stop-color="rgb(65.283203%, 39.988708%, 86.170959%)" offset="0.671875"/><stop stop-opacity="1" stop-color="rgb(65.861511%, 40.086365%, 86.332703%)" offset="0.675781"/><stop stop-opacity="1" stop-color="rgb(66.441345%, 40.184021%, 86.495972%)" offset="0.679688"/><stop stop-opacity="1" stop-color="rgb(67.019653%, 40.281677%, 86.659241%)" offset="0.683594"/><stop stop-opacity="1" stop-color="rgb(67.599487%, 40.379333%, 86.82251%)" offset="0.6875"/><stop stop-opacity="1" stop-color="rgb(68.177795%, 40.47699%, 86.985779%)" offset="0.691406"/><stop stop-opacity="1" stop-color="rgb(68.757629%, 40.574646%, 87.149048%)" offset="0.695312"/><stop stop-opacity="1" stop-color="rgb(69.335938%, 40.670776%, 87.310791%)" offset="0.699219"/><stop stop-opacity="1" stop-color="rgb(69.915771%, 40.768433%, 87.47406%)" offset="0.703125"/><stop stop-opacity="1" stop-color="rgb(70.49408%, 40.866089%, 87.637329%)" offset="0.707031"/><stop stop-opacity="1" stop-color="rgb(71.073914%, 40.963745%, 87.800598%)" offset="0.710937"/><stop stop-opacity="1" stop-color="rgb(71.653748%, 41.061401%, 87.962341%)" offset="0.714844"/><stop stop-opacity="1" stop-color="rgb(72.233582%, 41.159058%, 88.12561%)" offset="0.71875"/><stop stop-opacity="1" stop-color="rgb(72.81189%, 41.256714%, 88.288879%)" offset="0.722656"/><stop stop-opacity="1" stop-color="rgb(73.391724%, 41.35437%, 88.452148%)" offset="0.726562"/><stop stop-opacity="1" stop-color="rgb(73.970032%, 41.452026%, 88.615417%)" offset="0.730469"/><stop stop-opacity="1" stop-color="rgb(74.549866%, 41.549683%, 88.778687%)" offset="0.734375"/><stop stop-opacity="1" stop-color="rgb(75.128174%, 41.645813%, 88.94043%)" offset="0.738281"/><stop stop-opacity="1" stop-color="rgb(75.708008%, 41.743469%, 89.103699%)" offset="0.742188"/><stop stop-opacity="1" stop-color="rgb(76.286316%, 41.841125%, 89.266968%)" offset="0.746094"/><stop stop-opacity="1" stop-color="rgb(76.86615%, 41.938782%, 89.430237%)" offset="0.75"/><stop stop-opacity="1" stop-color="rgb(77.444458%, 42.036438%, 89.593506%)" offset="0.753906"/><stop stop-opacity="1" stop-color="rgb(78.024292%, 42.134094%, 89.756775%)" offset="0.757812"/><stop stop-opacity="1" stop-color="rgb(78.6026%, 42.23175%, 89.918518%)" offset="0.761719"/><stop stop-opacity="1" stop-color="rgb(79.182434%, 42.329407%, 90.081787%)" offset="0.765625"/><stop stop-opacity="1" stop-color="rgb(79.389954%, 42.364502%, 90.139771%)" offset="0.769531"/><stop stop-opacity="1" stop-color="rgb(79.598999%, 42.399597%, 90.19928%)" offset="0.773437"/><stop stop-opacity="1" stop-color="rgb(79.598999%, 42.399597%, 90.19928%)" offset="0.78125"/><stop stop-opacity="1" stop-color="rgb(79.598999%, 42.399597%, 90.19928%)" offset="0.8125"/><stop stop-opacity="1" stop-color="rgb(79.598999%, 42.399597%, 90.19928%)" offset="0.875"/><stop stop-opacity="1" stop-color="rgb(79.598999%, 42.399597%, 90.19928%)" offset="1"/></linearGradient><clipPath id="1269e9229a"><path d="M 29 53 L 50 53 L 50 74 L 29 74 Z M 29 53 " clip-rule="nonzero"/></clipPath><clipPath id="68b6c88bfb"><path d="M 39.585938 51.867188 L 51.253906 63.535156 L 39.585938 75.203125 L 27.917969 63.535156 Z M 39.585938 51.867188 " clip-rule="nonzero"/></clipPath><clipPath id="1baa05d44f"><path d="M 39.585938 51.867188 L 51.253906 63.535156 L 39.585938 75.203125 L 27.917969 63.535156 Z M 39.585938 51.867188 " clip-rule="nonzero"/></clipPath><clipPath id="18b595858e"><path d="M 31 16 L 77 16 L 77 62 L 31 62 Z M 31 16 " clip-rule="nonzero"/></clipPath><clipPath id="bb7c94096e"><path d="M 54.34375 13.5 L 79.800781 38.953125 L 54.34375 64.410156 L 28.886719 38.953125 Z M 54.34375 13.5 " clip-rule="nonzero"/></clipPath><clipPath id="27abd00041"><path d="M 54.34375 13.5 L 79.800781 38.953125 L 54.34375 64.410156 L 28.886719 38.953125 Z M 54.34375 13.5 " clip-rule="nonzero"/></clipPath><clipPath id="de81099d8c"><path d="M 2 16 L 49 16 L 49 62 L 2 62 Z M 2 16 " clip-rule="nonzero"/></clipPath><clipPath id="f284fa33cd"><path d="M 25.472656 13.359375 L 50.929688 38.816406 L 25.472656 64.269531 L 0.015625 38.816406 Z M 25.472656 13.359375 " clip-rule="nonzero"/></clipPath><clipPath id="35fce027d8"><path d="M 25.472656 13.359375 L 50.929688 38.816406 L 25.472656 64.269531 L 0.015625 38.816406 Z M 25.472656 13.359375 " clip-rule="nonzero"/></clipPath><clipPath id="34b5a27d14"><path d="M 28 1 L 52 1 L 52 25 L 28 25 Z M 28 1 " clip-rule="nonzero"/></clipPath><clipPath id="0896c0414e"><path d="M 39.585938 0.00390625 L 52.3125 12.730469 L 39.585938 25.457031 L 26.859375 12.730469 Z M 39.585938 0.00390625 " clip-rule="nonzero"/></clipPath><clipPath id="4b9c9a5df6"><path d="M 39.585938 0.00390625 L 52.3125 12.730469 L 39.585938 25.457031 L 26.859375 12.730469 Z M 39.585938 0.00390625 " clip-rule="nonzero"/></clipPath></defs><g clip-path="url(#9e41d8b87e)"><g clip-path="url(#c0e214a929)"><g clip-path="url(#ce61d9b506)"><g clip-path="url(#566f226bda)"><g clip-path="url(#d23260d07c)"><path fill="url(#4ebfbaaa1c)" d="M 97.550781 38.828125 L 39.582031 -19.140625 L -18.386719 38.828125 L 39.582031 96.796875 Z M 97.550781 38.828125 " fill-rule="nonzero"/></g></g></g></g></g><g clip-path="url(#1269e9229a)"><g clip-path="url(#68b6c88bfb)"><g clip-path="url(#1baa05d44f)"><path fill="#ffffff" d="M 48.941406 65.632812 C 50.160156 64.414062 50.160156 62.4375 48.941406 61.222656 L 41.792969 54.070312 C 40.574219 52.855469 38.597656 52.855469 37.382812 54.070312 L 30.230469 61.222656 C 29.011719 62.4375 29.011719 64.414062 30.230469 65.632812 C 30.230469 65.632812 37.382812 72.78125 37.382812 72.78125 C 38.597656 74 40.574219 74 41.792969 72.78125 Z M 48.828125 65.519531 C 49.980469 64.363281 49.984375 62.492188 48.828125 61.335938 L 41.679688 54.1875 C 40.523438 53.03125 38.648438 53.03125 37.496094 54.1875 L 30.34375 61.335938 C 29.191406 62.492188 29.191406 64.363281 30.34375 65.519531 L 37.496094 72.667969 C 38.648438 73.824219 40.523438 73.824219 41.679688 72.667969 Z M 48.828125 65.519531 " fill-opacity="1" fill-rule="evenodd"/></g></g></g><g clip-path="url(#18b595858e)"><g clip-path="url(#bb7c94096e)"><g clip-path="url(#27abd00041)"><path fill="#ffffff" d="M 74.847656 43.664062 C 77.515625 40.996094 77.515625 36.667969 74.847656 34 L 59.179688 18.328125 C 56.511719 15.664062 52.179688 15.664062 49.511719 18.328125 L 33.84375 34 C 31.175781 36.667969 31.175781 40.996094 33.84375 43.664062 C 33.84375 43.664062 49.511719 59.335938 49.511719 59.335938 C 52.179688 62 56.511719 62 59.179688 59.335938 Z M 74.597656 43.414062 C 77.125 40.886719 77.128906 36.777344 74.597656 34.25 L 58.929688 18.578125 C 56.398438 16.050781 52.292969 16.050781 49.761719 18.578125 L 34.09375 34.25 C 31.566406 36.777344 31.566406 40.886719 34.09375 43.414062 L 49.761719 59.082031 C 52.292969 61.613281 56.398438 61.613281 58.929688 59.085938 Z M 74.597656 43.414062 " fill-opacity="1" fill-rule="evenodd"/></g></g></g><g clip-path="url(#de81099d8c)"><g clip-path="url(#f284fa33cd)"><g clip-path="url(#35fce027d8)"><path fill="#ffffff" d="M 46.089844 43.695312 C 48.773438 41.011719 48.773438 36.65625 46.089844 33.972656 L 30.335938 18.21875 C 27.652344 15.535156 23.296875 15.535156 20.617188 18.21875 L 4.859375 33.972656 C 2.175781 36.65625 2.175781 41.011719 4.859375 43.695312 C 4.859375 43.695312 20.613281 59.449219 20.613281 59.449219 C 23.296875 62.132812 27.652344 62.132812 30.335938 59.449219 Z M 45.839844 43.441406 C 48.382812 40.898438 48.382812 36.769531 45.839844 34.226562 L 30.082031 18.46875 C 27.539062 15.925781 23.410156 15.925781 20.867188 18.46875 L 5.109375 34.226562 C 2.566406 36.769531 2.566406 40.898438 5.109375 43.441406 L 20.867188 59.199219 C 23.410156 61.742188 27.539062 61.742188 30.082031 59.199219 Z M 45.839844 43.441406 " fill-opacity="1" fill-rule="evenodd"/></g></g></g><g clip-path="url(#34b5a27d14)"><g clip-path="url(#0896c0414e)"><g clip-path="url(#4b9c9a5df6)"><path fill="#ffffff" d="M 50.023438 15.355469 C 51.378906 14 51.378906 11.792969 50.023438 10.4375 L 42.046875 2.460938 C 40.691406 1.101562 38.484375 1.101562 37.128906 2.460938 L 29.152344 10.4375 C 27.792969 11.792969 27.792969 14 29.152344 15.355469 C 29.152344 15.355469 37.128906 23.332031 37.128906 23.332031 C 38.484375 24.691406 40.691406 24.691406 42.046875 23.332031 Z M 49.894531 15.230469 C 51.183594 13.941406 51.183594 11.851562 49.894531 10.5625 L 41.917969 2.589844 C 40.632812 1.300781 38.542969 1.300781 37.253906 2.589844 L 29.277344 10.5625 C 27.992188 11.851562 27.992188 13.941406 29.277344 15.230469 L 37.253906 23.203125 C 38.542969 24.492188 40.632812 24.492188 41.917969 23.203125 Z M 49.894531 15.230469 " fill-opacity="1" fill-rule="evenodd"/></g></g></g><g fill="#ffffff" fill-opacity="1"><g transform="translate(86.751796, 39.833888)"><g><path d="M 13.96875 0 L 10.390625 0 L 10.390625 -7.65625 C 10.390625 -8.601562 10.222656 -9.3125 9.890625 -9.78125 C 9.554688 -10.25 9.019531 -10.484375 8.28125 -10.484375 C 7.28125 -10.484375 6.554688 -10.148438 6.109375 -9.484375 C 5.671875 -8.816406 5.453125 -7.710938 5.453125 -6.171875 L 5.453125 0 L 1.875 0 L 1.875 -13.109375 L 4.609375 -13.109375 L 5.09375 -11.421875 L 5.28125 -11.421875 C 5.6875 -12.054688 6.238281 -12.535156 6.9375 -12.859375 C 7.632812 -13.179688 8.425781 -13.34375 9.3125 -13.34375 C 10.84375 -13.34375 12 -12.929688 12.78125 -12.109375 C 13.570312 -11.285156 13.96875 -10.097656 13.96875 -8.546875 Z M 13.96875 0 "/></g></g><g transform="translate(102.525232, 39.833888)"><g><path d="M 4.71875 -6.578125 C 4.71875 -5.273438 4.929688 -4.289062 5.359375 -3.625 C 5.785156 -2.96875 6.476562 -2.640625 7.4375 -2.640625 C 8.394531 -2.640625 9.082031 -2.96875 9.5 -3.625 C 9.914062 -4.289062 10.125 -5.273438 10.125 -6.578125 C 10.125 -7.867188 9.910156 -8.835938 9.484375 -9.484375 C 9.066406 -10.140625 8.378906 -10.46875 7.421875 -10.46875 C 6.460938 -10.46875 5.769531 -10.144531 5.34375 -9.5 C 4.925781 -8.851562 4.71875 -7.878906 4.71875 -6.578125 Z M 13.78125 -6.578125 C 13.78125 -4.441406 13.21875 -2.769531 12.09375 -1.5625 C 10.96875 -0.363281 9.398438 0.234375 7.390625 0.234375 C 6.140625 0.234375 5.03125 -0.0390625 4.0625 -0.59375 C 3.101562 -1.144531 2.363281 -1.9375 1.84375 -2.96875 C 1.332031 -4 1.078125 -5.203125 1.078125 -6.578125 C 1.078125 -8.710938 1.632812 -10.375 2.75 -11.5625 C 3.875 -12.75 5.445312 -13.34375 7.46875 -13.34375 C 8.726562 -13.34375 9.835938 -13.066406 10.796875 -12.515625 C 11.753906 -11.972656 12.488281 -11.191406 13 -10.171875 C 13.519531 -9.148438 13.78125 -7.953125 13.78125 -6.578125 Z M 13.78125 -6.578125 "/></g></g><g transform="translate(117.384606, 39.833888)"><g><path d="M 12.640625 0 L 11.640625 -4.578125 L 10.28125 -10.375 L 10.203125 -10.375 L 7.8125 0 L 3.96875 0 L 0.234375 -13.109375 L 3.796875 -13.109375 L 5.3125 -7.296875 C 5.550781 -6.265625 5.796875 -4.832031 6.046875 -3 L 6.125 -3 C 6.15625 -3.59375 6.289062 -4.535156 6.53125 -5.828125 L 6.71875 -6.828125 L 8.328125 -13.109375 L 12.265625 -13.109375 L 13.8125 -6.828125 C 13.84375 -6.648438 13.890625 -6.394531 13.953125 -6.0625 C 14.015625 -5.726562 14.078125 -5.367188 14.140625 -4.984375 C 14.203125 -4.609375 14.257812 -4.238281 14.3125 -3.875 C 14.363281 -3.507812 14.394531 -3.21875 14.40625 -3 L 14.46875 -3 C 14.539062 -3.5625 14.664062 -4.332031 14.84375 -5.3125 C 15.03125 -6.289062 15.160156 -6.953125 15.234375 -7.296875 L 16.8125 -13.109375 L 20.3125 -13.109375 L 16.53125 0 Z M 12.640625 0 "/></g></g><g transform="translate(137.927573, 39.833888)"><g><path d="M 13.28125 -13.109375 L 13.28125 -11.28125 L 11.234375 -10.765625 C 11.609375 -10.171875 11.796875 -9.515625 11.796875 -8.796875 C 11.796875 -7.390625 11.300781 -6.289062 10.3125 -5.5 C 9.332031 -4.71875 7.972656 -4.328125 6.234375 -4.328125 L 5.59375 -4.359375 L 5.0625 -4.421875 C 4.695312 -4.140625 4.515625 -3.828125 4.515625 -3.484375 C 4.515625 -2.960938 5.171875 -2.703125 6.484375 -2.703125 L 8.703125 -2.703125 C 10.140625 -2.703125 11.234375 -2.394531 11.984375 -1.78125 C 12.742188 -1.164062 13.125 -0.257812 13.125 0.9375 C 13.125 2.46875 12.484375 3.65625 11.203125 4.5 C 9.929688 5.34375 8.097656 5.765625 5.703125 5.765625 C 3.878906 5.765625 2.484375 5.445312 1.515625 4.8125 C 0.554688 4.175781 0.078125 3.285156 0.078125 2.140625 C 0.078125 1.347656 0.320312 0.6875 0.8125 0.15625 C 1.300781 -0.375 2.023438 -0.753906 2.984375 -0.984375 C 2.609375 -1.140625 2.285156 -1.394531 2.015625 -1.75 C 1.742188 -2.101562 1.609375 -2.484375 1.609375 -2.890625 C 1.609375 -3.390625 1.75 -3.800781 2.03125 -4.125 C 2.320312 -4.457031 2.742188 -4.785156 3.296875 -5.109375 C 2.609375 -5.410156 2.0625 -5.890625 1.65625 -6.546875 C 1.257812 -7.203125 1.0625 -7.972656 1.0625 -8.859375 C 1.0625 -10.285156 1.523438 -11.390625 2.453125 -12.171875 C 3.378906 -12.953125 4.707031 -13.34375 6.4375 -13.34375 C 6.800781 -13.34375 7.234375 -13.3125 7.734375 -13.25 C 8.242188 -13.1875 8.566406 -13.140625 8.703125 -13.109375 Z M 3.171875 1.859375 C 3.171875 2.347656 3.40625 2.734375 3.875 3.015625 C 4.34375 3.296875 5.003906 3.4375 5.859375 3.4375 C 7.140625 3.4375 8.144531 3.257812 8.875 2.90625 C 9.601562 2.550781 9.96875 2.070312 9.96875 1.46875 C 9.96875 0.976562 9.75 0.640625 9.3125 0.453125 C 8.882812 0.265625 8.222656 0.171875 7.328125 0.171875 L 5.46875 0.171875 C 4.8125 0.171875 4.265625 0.320312 3.828125 0.625 C 3.390625 0.9375 3.171875 1.347656 3.171875 1.859375 Z M 4.46875 -8.8125 C 4.46875 -8.101562 4.628906 -7.539062 4.953125 -7.125 C 5.273438 -6.707031 5.769531 -6.5 6.4375 -6.5 C 7.101562 -6.5 7.59375 -6.707031 7.90625 -7.125 C 8.21875 -7.539062 8.375 -8.101562 8.375 -8.8125 C 8.375 -10.394531 7.726562 -11.1875 6.4375 -11.1875 C 5.125 -11.1875 4.46875 -10.394531 4.46875 -8.8125 Z M 4.46875 -8.8125 "/></g></g><g transform="translate(151.486166, 39.833888)"><g><path d="M 4.71875 -6.578125 C 4.71875 -5.273438 4.929688 -4.289062 5.359375 -3.625 C 5.785156 -2.96875 6.476562 -2.640625 7.4375 -2.640625 C 8.394531 -2.640625 9.082031 -2.96875 9.5 -3.625 C 9.914062 -4.289062 10.125 -5.273438 10.125 -6.578125 C 10.125 -7.867188 9.910156 -8.835938 9.484375 -9.484375 C 9.066406 -10.140625 8.378906 -10.46875 7.421875 -10.46875 C 6.460938 -10.46875 5.769531 -10.144531 5.34375 -9.5 C 4.925781 -8.851562 4.71875 -7.878906 4.71875 -6.578125 Z M 13.78125 -6.578125 C 13.78125 -4.441406 13.21875 -2.769531 12.09375 -1.5625 C 10.96875 -0.363281 9.398438 0.234375 7.390625 0.234375 C 6.140625 0.234375 5.03125 -0.0390625 4.0625 -0.59375 C 3.101562 -1.144531 2.363281 -1.9375 1.84375 -2.96875 C 1.332031 -4 1.078125 -5.203125 1.078125 -6.578125 C 1.078125 -8.710938 1.632812 -10.375 2.75 -11.5625 C 3.875 -12.75 5.445312 -13.34375 7.46875 -13.34375 C 8.726562 -13.34375 9.835938 -13.066406 10.796875 -12.515625 C 11.753906 -11.972656 12.488281 -11.191406 13 -10.171875 C 13.519531 -9.148438 13.78125 -7.953125 13.78125 -6.578125 Z M 13.78125 -6.578125 "/></g></g></g><g fill="#ffffff" fill-opacity="1"><g transform="translate(89.571167, 53.466103)"><g><path d="M 2.546875 0.21875 C 2.035156 0.21875 1.585938 0.132812 1.203125 -0.03125 C 0.816406 -0.207031 0.519531 -0.453125 0.3125 -0.765625 C 0.113281 -1.085938 0.03125 -1.46875 0.0625 -1.90625 L 0.953125 -2.03125 C 0.921875 -1.59375 1.050781 -1.242188 1.34375 -0.984375 C 1.644531 -0.722656 2.066406 -0.59375 2.609375 -0.59375 C 2.910156 -0.59375 3.191406 -0.628906 3.453125 -0.703125 C 3.710938 -0.785156 3.921875 -0.90625 4.078125 -1.0625 C 4.234375 -1.226562 4.3125 -1.4375 4.3125 -1.6875 C 4.3125 -1.90625 4.226562 -2.082031 4.0625 -2.21875 C 3.90625 -2.351562 3.644531 -2.46875 3.28125 -2.5625 L 2.265625 -2.84375 C 1.765625 -2.96875 1.394531 -3.144531 1.15625 -3.375 C 0.914062 -3.601562 0.796875 -3.910156 0.796875 -4.296875 C 0.796875 -4.679688 0.894531 -5.019531 1.09375 -5.3125 C 1.300781 -5.613281 1.578125 -5.847656 1.921875 -6.015625 C 2.273438 -6.191406 2.675781 -6.28125 3.125 -6.28125 C 3.757812 -6.28125 4.265625 -6.113281 4.640625 -5.78125 C 5.023438 -5.457031 5.222656 -5.039062 5.234375 -4.53125 L 4.359375 -4.359375 C 4.367188 -4.679688 4.257812 -4.945312 4.03125 -5.15625 C 3.800781 -5.375 3.46875 -5.484375 3.03125 -5.484375 C 2.644531 -5.484375 2.320312 -5.382812 2.0625 -5.1875 C 1.8125 -5 1.6875 -4.742188 1.6875 -4.421875 C 1.6875 -4.046875 2.007812 -3.769531 2.65625 -3.59375 L 3.625 -3.328125 C 4.164062 -3.191406 4.5625 -3.003906 4.8125 -2.765625 C 5.070312 -2.523438 5.203125 -2.203125 5.203125 -1.796875 C 5.203125 -1.390625 5.082031 -1.035156 4.84375 -0.734375 C 4.601562 -0.429688 4.28125 -0.195312 3.875 -0.03125 C 3.476562 0.132812 3.035156 0.21875 2.546875 0.21875 Z M 2.546875 0.21875 "/></g></g></g><g fill="#ffffff" fill-opacity="1"><g transform="translate(95.223174, 53.466103)"><g><path d="M 2.9375 0.21875 C 2.113281 0.21875 1.46875 -0.0078125 1 -0.46875 C 0.53125 -0.9375 0.296875 -1.566406 0.296875 -2.359375 C 0.296875 -2.898438 0.378906 -3.40625 0.546875 -3.875 C 0.722656 -4.34375 0.96875 -4.753906 1.28125 -5.109375 C 1.601562 -5.472656 1.984375 -5.757812 2.421875 -5.96875 C 2.859375 -6.175781 3.335938 -6.28125 3.859375 -6.28125 C 4.679688 -6.28125 5.328125 -6.046875 5.796875 -5.578125 C 6.265625 -5.109375 6.5 -4.476562 6.5 -3.6875 C 6.5 -3.144531 6.410156 -2.640625 6.234375 -2.171875 C 6.066406 -1.703125 5.828125 -1.285156 5.515625 -0.921875 C 5.203125 -0.566406 4.828125 -0.285156 4.390625 -0.078125 C 3.953125 0.117188 3.46875 0.21875 2.9375 0.21875 Z M 2.96875 -0.59375 C 3.5 -0.59375 3.957031 -0.738281 4.34375 -1.03125 C 4.738281 -1.320312 5.046875 -1.695312 5.265625 -2.15625 C 5.484375 -2.625 5.59375 -3.117188 5.59375 -3.640625 C 5.59375 -4.203125 5.4375 -4.644531 5.125 -4.96875 C 4.820312 -5.289062 4.394531 -5.453125 3.84375 -5.453125 C 3.3125 -5.453125 2.847656 -5.304688 2.453125 -5.015625 C 2.054688 -4.734375 1.75 -4.363281 1.53125 -3.90625 C 1.320312 -3.445312 1.21875 -2.945312 1.21875 -2.40625 C 1.21875 -1.851562 1.367188 -1.410156 1.671875 -1.078125 C 1.984375 -0.753906 2.414062 -0.59375 2.96875 -0.59375 Z M 2.96875 -0.59375 "/></g></g></g><g fill="#ffffff" fill-opacity="1"><g transform="translate(102.02719, 53.466103)"><g><path d="M 2.921875 0.21875 C 2.390625 0.21875 1.925781 0.109375 1.53125 -0.109375 C 1.144531 -0.328125 0.84375 -0.632812 0.625 -1.03125 C 0.414062 -1.425781 0.3125 -1.890625 0.3125 -2.421875 C 0.3125 -2.929688 0.390625 -3.414062 0.546875 -3.875 C 0.710938 -4.332031 0.941406 -4.738281 1.234375 -5.09375 C 1.535156 -5.457031 1.890625 -5.742188 2.296875 -5.953125 C 2.710938 -6.171875 3.160156 -6.28125 3.640625 -6.28125 C 4.347656 -6.28125 4.898438 -6.078125 5.296875 -5.671875 C 5.691406 -5.273438 5.90625 -4.769531 5.9375 -4.15625 L 5.0625 -4.015625 C 5.007812 -4.460938 4.851562 -4.8125 4.59375 -5.0625 C 4.34375 -5.320312 4.007812 -5.453125 3.59375 -5.453125 C 3.25 -5.453125 2.929688 -5.363281 2.640625 -5.1875 C 2.347656 -5.019531 2.097656 -4.789062 1.890625 -4.5 C 1.679688 -4.21875 1.515625 -3.898438 1.390625 -3.546875 C 1.273438 -3.203125 1.21875 -2.851562 1.21875 -2.5 C 1.21875 -1.90625 1.378906 -1.4375 1.703125 -1.09375 C 2.023438 -0.757812 2.457031 -0.59375 3 -0.59375 C 3.332031 -0.59375 3.648438 -0.671875 3.953125 -0.828125 C 4.265625 -0.984375 4.53125 -1.195312 4.75 -1.46875 C 4.976562 -1.738281 5.144531 -2.046875 5.25 -2.390625 L 6.09375 -2.140625 C 5.957031 -1.679688 5.726562 -1.273438 5.40625 -0.921875 C 5.09375 -0.566406 4.71875 -0.285156 4.28125 -0.078125 C 3.851562 0.117188 3.398438 0.21875 2.921875 0.21875 Z M 2.921875 0.21875 "/></g></g></g><g fill="#ffffff" fill-opacity="1"><g transform="translate(108.5072, 53.466103)"><g><path d="M 1.859375 -7.234375 C 1.671875 -7.234375 1.519531 -7.285156 1.40625 -7.390625 C 1.300781 -7.503906 1.25 -7.648438 1.25 -7.828125 C 1.25 -8.035156 1.316406 -8.207031 1.453125 -8.34375 C 1.585938 -8.488281 1.753906 -8.5625 1.953125 -8.5625 C 2.148438 -8.5625 2.300781 -8.507812 2.40625 -8.40625 C 2.519531 -8.300781 2.578125 -8.160156 2.578125 -7.984375 C 2.578125 -7.753906 2.507812 -7.570312 2.375 -7.4375 C 2.238281 -7.300781 2.066406 -7.234375 1.859375 -7.234375 Z M 0.203125 0 L 1.15625 -6.0625 L 2.0625 -6.0625 L 1.109375 0 Z M 0.203125 0 "/></g></g></g><g fill="#ffffff" fill-opacity="1"><g transform="translate(110.7992, 53.466103)"><g><path d="M 2.765625 0.21875 C 2.265625 0.21875 1.828125 0.109375 1.453125 -0.109375 C 1.085938 -0.328125 0.800781 -0.632812 0.59375 -1.03125 C 0.394531 -1.425781 0.296875 -1.882812 0.296875 -2.40625 C 0.296875 -2.925781 0.378906 -3.414062 0.546875 -3.875 C 0.710938 -4.34375 0.953125 -4.753906 1.265625 -5.109375 C 1.578125 -5.472656 1.9375 -5.757812 2.34375 -5.96875 C 2.757812 -6.175781 3.207031 -6.28125 3.6875 -6.28125 C 4.164062 -6.28125 4.570312 -6.171875 4.90625 -5.953125 C 5.25 -5.734375 5.507812 -5.4375 5.6875 -5.0625 L 5.703125 -5.0625 L 5.96875 -6.0625 L 6.796875 -6.0625 L 5.828125 0 L 5.046875 0 L 5.125 -0.984375 L 5.109375 -0.984375 C 4.816406 -0.609375 4.460938 -0.3125 4.046875 -0.09375 C 3.640625 0.113281 3.210938 0.21875 2.765625 0.21875 Z M 2.90625 -0.59375 C 3.28125 -0.59375 3.625 -0.675781 3.9375 -0.84375 C 4.25 -1.019531 4.519531 -1.25 4.75 -1.53125 C 4.976562 -1.820312 5.15625 -2.144531 5.28125 -2.5 C 5.414062 -2.863281 5.484375 -3.226562 5.484375 -3.59375 C 5.484375 -4.144531 5.328125 -4.59375 5.015625 -4.9375 C 4.710938 -5.28125 4.300781 -5.453125 3.78125 -5.453125 C 3.414062 -5.453125 3.070312 -5.363281 2.75 -5.1875 C 2.4375 -5.019531 2.160156 -4.789062 1.921875 -4.5 C 1.691406 -4.21875 1.507812 -3.898438 1.375 -3.546875 C 1.25 -3.203125 1.1875 -2.835938 1.1875 -2.453125 C 1.1875 -1.898438 1.34375 -1.453125 1.65625 -1.109375 C 1.96875 -0.765625 2.382812 -0.59375 2.90625 -0.59375 Z M 2.90625 -0.59375 "/></g></g></g><g fill="#ffffff" fill-opacity="1"><g transform="translate(117.711213, 53.466103)"><g><path d="M 0.125 0 L 1.515625 -8.8125 L 2.40625 -8.8125 L 1.015625 0 Z M 0.125 0 "/></g></g></g></svg>